<svg xmlns="http://www.w3.org/2000/svg" xmlns:xlink="http://www.w3.org/1999/xlink" width="118" height="134" version="1.1" viewBox="0 0 118 134"><title>head</title><desc>Created with Sketch.</desc><g id="Page-1" fill="none" fill-rule="evenodd" stroke="none" stroke-width="1"><g id="head"><polygon id="chick-right" fill="#FFF" fill-rule="nonzero" points="86.977 61.374 77.768 59.328 84.931 69.557 84.931 101.267 109.489 80.809 109.489 46.031 98.233 50.122"/><polygon id="chick-left" fill="#FFF" fill-rule="nonzero" points="16.372 61.374 7.163 59.328 14.326 69.557 14.326 101.267 38.884 80.809 38.884 46.031 27.628 50.122" transform="translate(23.023394, 73.648855) scale(-1, 1) translate(-23.023394, -73.648855)"/><polygon id="mask" fill="#FFF" points="34.69 71.477 42.853 59.178 47.954 62.253 68.36 62.253 73.462 59.178 81.624 71.477 81.624 117.601 75.503 126.825 68.36 134 47.954 134 40.812 126.825 34.69 117.601"/><g id="mask-effect-right" fill="#C3002F" transform="translate(65.488766, 88.992366)"><polygon id="Rectangle-3" points="1.675 6.193 19.264 6.949 16.744 10.173 -.845 9.417" transform="translate(9.209358, 8.183206) rotate(-38.000000) translate(-9.209358, -8.183206)"/><polygon id="Rectangle-3" points="1.675 14.376 19.264 15.132 16.744 18.357 -.845 17.6" transform="translate(9.209358, 16.366412) rotate(-38.000000) translate(-9.209358, -16.366412)"/><polygon id="Rectangle-3" points="1.675 22.559 19.264 23.316 16.744 26.54 -.845 25.784" transform="translate(9.209358, 24.549618) rotate(-38.000000) translate(-9.209358, -24.549618)"/></g><g id="mask-effect-left" fill="#DD0031" transform="translate(32.744383, 88.992366)"><polygon id="Rectangle-3" points="1.675 6.193 19.264 6.949 16.744 10.173 -.845 9.417" transform="translate(9.209358, 8.183206) scale(-1, 1) rotate(-38.000000) translate(-9.209358, -8.183206)"/><polygon id="Rectangle-3" points="1.675 14.376 19.264 15.132 16.744 18.357 -.845 17.6" transform="translate(9.209358, 16.366412) scale(-1, 1) rotate(-38.000000) translate(-9.209358, -16.366412)"/><polygon id="Rectangle-3" points="1.675 22.559 19.264 23.316 16.744 26.54 -.845 25.784" transform="translate(9.209358, 24.549618) scale(-1, 1) rotate(-38.000000) translate(-9.209358, -24.549618)"/></g><polygon id="bottom-chick-right" fill="#FFF" fill-rule="nonzero" points="84.931 120.702 98.233 107.405 98.233 94.107 84.931 105.359"/><polygon id="bottom-chick-left" fill="#FFF" fill-rule="nonzero" points="18.419 120.702 31.721 107.405 31.721 94.107 18.419 105.359" transform="translate(25.069918, 107.404580) scale(-1, 1) translate(-25.069918, -107.404580)"/><path fill="#FFF" d="M64.4655043,1.91846539e-13 L64.4655043,25.5725191 L68.5585522,23.5267176 L68.5585522,1.91846539e-13 L71.6283381,0 L79.8144339,19.4351145 L67.5352902,58.3053435 L60.3724564,58.3053435 L60.3724564,0 L64.4655043,1.91846539e-13 Z M48.0933127,23.5267176 L52.1863606,25.5725191 L52.1863606,0 L56.2794085,0 L56.2794085,58.3053435 L50.1398367,58.3053435 L36.837431,19.4351145 L45.0235268,0 L48.0933127,0 L48.0933127,23.5267176 Z"/><polygon id="head-left" fill="#FFF" fill-rule="nonzero" points="50.14 58.305 6.14 41.939 0 16.366 37.861 19.435 51.163 58.305"/><polygon id="head-right" fill="#FFF" fill-rule="nonzero" points="116.652 58.305 72.652 41.939 66.512 16.366 105.396 19.435 117.675 58.305" transform="translate(92.093578, 37.335878) scale(-1, 1) translate(-92.093578, -37.335878)"/><polygon id="ear-right" fill="#FFF" fill-rule="nonzero" points="81.861 16.366 103.349 14.321 89.024 0 74.698 0"/><polygon id="ear-left" fill="#FFF" fill-rule="nonzero" points="20.465 16.366 41.954 14.321 27.628 0 13.302 0" transform="translate(27.628073, 8.183206) scale(-1, 1) translate(-27.628073, -8.183206)"/></g></g></svg>